<svg xmlns="http://www.w3.org/2000/svg" viewBox="0 0 460 130" fill="none">
  <title>RUTIA — Inteligencia para repartir</title>
  <defs>
    <linearGradient id="rutia-icon-gradient" x1="0%" y1="100%" x2="100%" y2="0%">
      <stop offset="0%" stop-color="#009CB2" />
      <stop offset="100%" stop-color="#00C6AF" />
    </linearGradient>
  </defs>
  <g transform="translate(8,11) scale(0.1631)">
    <g transform="translate(0,613) scale(0.1,-0.1)" fill="url(#rutia-icon-gradient)" stroke="none">
      <path d="M640 5919 c-213 -39 -374 -186 -426 -391 -21 -81 -14 -229 15 -311 39 -111 147 -237 238 -279 23 -10 44 -22 47 -26 2 -4 5 -545 7 -1202 1 -657 4 -1208 7 -1223 7 -44 21 -28 62 73 44 110 182 376 228 440 18 25 48 67 67 94 l35 48 0 883 0 883 64 36 c85 48 148 112 198 203 l40 74 982 -3 c1063 -4 1005 -1 1191 -59 650 -200 1086 -796 1085 -1482 -1 -587 -344 -1129 -886 -1400 -60 -30 -144 -65 -185 -78 -114 -34 -118 -40 -61 -97 41 -40 174 -182 262 -278 99 -107 322 -347 420 -449 52 -55 172 -183 265 -284 94 -101 214 -231 268 -289 54 -57 97 -110 95 -118 -2 -8 -48 -49 -102 -91 -108 -85 -129 -109 -108 -122 15 -9 94 -34 402 -125 124 -37 261 -79 305 -93 194 -62 255 -74 255 -50 -1 23 -29 162 -44 217 -9 30 -20 82 -26 115 -6 33 -15 78 -20 100 -27 112 -82 352 -101 440 -12 55 -27 110 -33 123 -13 25 -23 17 -181 -155 -26 -29 -56 -53 -66 -53 -10 0 -61 48 -118 113 -56 61 -154 169 -219 238 -64 69 -207 222 -317 340 -110 118 -226 241 -257 274 -32 33 -58 65 -58 71 0 7 24 27 53 45 112 72 300 245 389 359 29 36 57 70 63 75 21 18 112 158 156 240 23 44 50 92 60 107 11 14 19 30 19 34 0 4 16 49 35 99 167 433 175 915 23 1338 -83 232 -155 369 -288 545 -316 416 -806 692 -1318 742 -53 5 -516 10 -1029 10 l-931 0 -30 53 c-97 169 -339 281 -532 246z" />
    </g>
  </g>
  <text x="118" y="66" font-family="Arial, Helvetica, sans-serif" font-weight="800" font-size="42" letter-spacing="1.5">
    <tspan fill="#101828">RUT</tspan><tspan fill="#00C6AF">IA</tspan>
  </text>
  <text x="119" y="88" font-family="Arial, Helvetica, sans-serif" font-weight="600" font-size="11" letter-spacing="2.5">
    <tspan fill="#475569">INTELIGENCIA PARA REPARTIR</tspan>
  </text>
</svg>
